# xmcd
#
# Track frame offsets:
#	150
#	11242
#	22350
#	33050
#	44307
#	53885
#	63897
#	75162
#	86322
#	98147
#	110765
#	120912
#	131937
#	142742
#	156790
#	168812
#	178927
#	191415
#
# Disc length: 2692 seconds
#
# Revision: 2
# Processed by: cddbd v1.5.2PL0 Copyright (c) Steve Scherf et al.
# Submitted via: audiograbber 1.83.01
#
DISCID=e00a8212
DTITLE=Red Tyler - And The Gyros
DYEAR=1900
DGENRE=Instrumental
TTITLE0=Stinky Aka Happy Sax
TTITLE1=Dippy
TTITLE2=Drag Race
TTITLE3=Long Ride
TTITLE4=Peanut Vendor
TTITLE5=Walk On
TTITLE6=Junk Village
TTITLE7=Tonking
TTITLE8=Glassy Lassie
TTITLE9=Lonely For You
TTITLE10=Double Whammy
TTITLE11=Snake Eyes
TTITLE12=Hey Mama
TTITLE13=Peanut Vendor
TTITLE14=Classy Lassie
TTITLE15=Walk On
TTITLE16=Tonking
TTITLE17=Hey Mama
EXTD=
EXTT0=
EXTT1=
EXTT2=
EXTT3=
EXTT4=
EXTT5=
EXTT6=
EXTT7=
EXTT8=
EXTT9=
EXTT10=
EXTT11=
EXTT12=
EXTT13=
EXTT14=
EXTT15=
EXTT16=
EXTT17=
PLAYORDER=
